<svg width="772" height="801" viewBox="0 0 772 801" fill="none" xmlns="http://www.w3.org/2000/svg">
<path d="M0.0537109 428.325L141.748 174.854L265.695 175.602L123.664 428.325L0.0537109 428.325Z" fill="url(#paint0_linear_201_68)"/>
<path d="M625.573 55.765L767.547 309.067L705.679 420.718L564.497 167.481L625.573 55.765Z" fill="url(#paint1_linear_201_68)"/>
<path d="M613.363 801L331.369 797.852L270.872 685.392L552.407 689.213L613.363 801Z" fill="url(#paint2_linear_201_68)"/>
<path d="M121.505 424.442L198.325 557.156L103.062 613.932L0.0517346 428.325L121.505 424.442Z" fill="#0F3524"/>
<path d="M568.811 167.449L419.86 171.302L419.447 57.1519L625.574 55.7637L568.811 167.449Z" fill="#0F3524"/>
<path d="M549.608 692.208L622.761 557.273L718.401 616.128L613.869 800.814L549.608 692.208Z" fill="#0F3524"/>
<path d="M124.882 654.355L62.7568 539.095L408.899 544.809L464.255 659.958L124.882 654.355Z" fill="url(#paint3_linear_201_68)"/>
<path d="M357.149 56.4369L483.029 56.4369L308.75 375.213L183.915 372.386L357.149 56.4369Z" fill="url(#paint4_linear_201_68)"/>
<path d="M755.447 556.823L685.439 674.497L511.504 355.518L577.84 245.548L755.447 556.823Z" fill="url(#paint5_linear_201_68)"/>
<defs>
<linearGradient id="paint0_linear_201_68" x1="218.715" y1="147.405" x2="36.8555" y2="450.413" gradientUnits="userSpaceOnUse">
<stop stop-color="#2C9B69"/>
<stop offset="1" stop-color="#0F3524"/>
</linearGradient>
<linearGradient id="paint1_linear_201_68" x1="578.778" y1="84.2927" x2="762.687" y2="385.965" gradientUnits="userSpaceOnUse">
<stop stop-color="#0F3524"/>
<stop offset="1" stop-color="#2C9B69"/>
</linearGradient>
<linearGradient id="paint2_linear_201_68" x1="270.443" y1="741.783" x2="613.794" y2="744.397" gradientUnits="userSpaceOnUse">
<stop stop-color="#2C9B69"/>
<stop offset="1" stop-color="#0F3524"/>
</linearGradient>
<linearGradient id="paint3_linear_201_68" x1="465.091" y1="605.277" x2="62.4754" y2="615.53" gradientUnits="userSpaceOnUse">
<stop stop-color="#2C9B69"/>
<stop offset="1" stop-color="#0F3524"/>
</linearGradient>
<linearGradient id="paint4_linear_201_68" x1="435.266" y1="28.2184" x2="219.507" y2="393.414" gradientUnits="userSpaceOnUse">
<stop stop-color="#0F3524"/>
<stop offset="1" stop-color="#2C9B69"/>
</linearGradient>
<linearGradient id="paint5_linear_201_68" x1="533.026" y1="271.955" x2="748.375" y2="637.412" gradientUnits="userSpaceOnUse">
<stop stop-color="#2C9B69"/>
<stop offset="1" stop-color="#0F3524"/>
</linearGradient>
</defs>
</svg>
